<svg width="32" height="32" viewBox="0 0 32 32" fill="none" xmlns="http://www.w3.org/2000/svg">
<g clip-path="url(#clip0_408_2)">
<path d="M31.7723 4.7238L16.7988 31.499C16.4896 32.0518 15.6954 32.055 15.3816 31.5049L0.111229 4.72629C-0.230686 4.12688 0.281937 3.40071 0.961283 3.52224L15.9509 6.2014C16.0465 6.21849 16.1444 6.21832 16.24 6.2009L30.916 3.52597C31.5931 3.40258 32.1081 4.12314 31.7723 4.7238Z" fill="url(#paint0_linear_408_2)"/>
<path d="M23.0911 0.00785783L12.0104 2.17913C11.9219 2.19647 11.8416 2.24275 11.7822 2.31068C11.7229 2.37861 11.6878 2.46435 11.6824 2.55441L11.0008 14.0664C10.9971 14.1296 11.0081 14.1927 11.033 14.2509C11.0579 14.309 11.0961 14.3605 11.1444 14.4013C11.1927 14.4422 11.2498 14.4712 11.3113 14.486C11.3728 14.5009 11.4369 14.5013 11.4985 14.487L14.5836 13.7751C14.8722 13.7085 15.1331 13.9627 15.0737 14.253L14.1571 18.7413C14.0955 19.0434 14.379 19.3016 14.674 19.212L16.5795 18.6331C16.8749 18.5435 17.1588 18.8024 17.0963 19.1048L15.6397 26.1548C15.5486 26.5959 16.1352 26.8363 16.3797 26.4583L16.5432 26.2058L25.5724 8.18616C25.7237 7.88447 25.4628 7.54043 25.1316 7.60443L21.9559 8.21729C21.6576 8.27482 21.4037 7.9969 21.4879 7.70504L23.5605 0.519982C23.6448 0.227375 23.3899 -0.0506636 23.0912 0.00785783H23.0911Z" fill="url(#paint1_linear_408_2)"/>
</g>
<defs>
<linearGradient id="paint0_linear_408_2" x1="-0.261609" y1="5.68247" x2="15.8872" y2="27.614" gradientUnits="userSpaceOnUse">
<stop stop-color="#41D1FF"/>
<stop offset="1" stop-color="#BD34FE"/>
</linearGradient>
<linearGradient id="paint1_linear_408_2" x1="17.3401" y1="0.5974" x2="20.6622" y2="23.3864" gradientUnits="userSpaceOnUse">
<stop stop-color="#FFEA83"/>
<stop offset="0.08333" stop-color="#FFDD35"/>
<stop offset="1" stop-color="#FFA800"/>
</linearGradient>
<clipPath id="clip0_408_2">
<rect width="31.88" height="32" fill="white"/>
</clipPath>
</defs>
</svg>
